<svg width="696" height="164" viewBox="0 0 696 164" fill="none" xmlns="http://www.w3.org/2000/svg">
<path d="M215 20.1008L55.5379 20.5415C47.6187 20.5634 39.7211 19.5641 32.033 17.5673L24.2136 15.5364C15.2967 13.2205 7.00992 8.83743 0.000275068 2.72945L166.853 4.17229C172.225 4.21874 177.584 4.7977 182.854 5.90098L188.171 7.01419C198.015 9.07484 207.228 13.5689 215 20.1008Z" fill="url(#paint0_linear_0_1)"/>
<path d="M111.961 158.289L114.127 74.1507C114.351 65.4125 116.515 56.84 120.455 49.0778L122.54 44.9703C126.431 37.3055 132.499 31.0178 139.951 26.9302L136.796 122.618C136.571 129.447 134.58 136.095 131.024 141.885C127.698 147.302 123.11 151.795 117.669 154.964L111.961 158.289Z" fill="url(#paint1_linear_0_1)"/>
<path d="M63.408 33.9178L61.4494 117.394C61.2491 125.932 59.1853 134.316 55.4081 141.936L53.2728 146.244C49.5498 153.754 43.6912 159.943 36.4633 164L39.3619 69.1275C39.5659 62.4532 41.4696 55.9488 44.8859 50.2544C48.1336 44.8409 52.6447 40.3323 58.0166 37.1308L63.408 33.9178Z" fill="url(#paint2_linear_0_1)"/>
<path d="M211.724 17.3842L55.8199 17.8151C48.0187 17.8367 40.24 16.8308 32.6766 14.8223L25.2012 12.8372C16.4096 10.5025 8.26021 6.10638 1.4042 0L164.57 1.45241C169.859 1.4995 175.135 2.08223 180.32 3.19204L185.356 4.27019C195.061 6.34757 204.123 10.8546 211.724 17.3842Z" fill="url(#paint3_linear_0_1)"/>
<path d="M109.162 158.289L111.327 74.1507C111.552 65.4125 113.716 56.84 117.656 49.0778L119.741 44.9703C123.632 37.3055 129.7 31.0178 137.152 26.9302L133.997 122.618C133.772 129.447 131.781 136.095 128.225 141.885C124.899 147.302 120.311 151.795 114.87 154.964L109.162 158.289Z" fill="url(#paint4_linear_0_1)"/>
<path d="M60.7645 32.6415L58.8059 116.118C58.6056 124.656 56.5418 133.04 52.7646 140.66L50.6293 144.967C46.9063 152.478 41.0477 158.667 33.8198 162.724L36.7184 67.8513C36.9224 61.177 38.8261 54.6726 42.2424 48.9782C45.4901 43.5646 50.0012 39.056 55.3731 35.8546L60.7645 32.6415Z" fill="url(#paint5_linear_0_1)"/>
<path d="M0 95.4651H36.3874V81.187H23.0364C15.5221 81.187 8.38381 84.5406 3.49878 90.3658L0 95.4651Z" fill="url(#paint6_linear_0_1)"/>
<path d="M61.5787 81.1869H111.961V95.465H61.5787V81.1869Z" fill="url(#paint7_linear_0_1)"/>
<path d="M262.464 26.848H268.128V39.856H281.712V26.848H287.376V58H281.712V44.8H268.128V58H262.464V26.848ZM310.708 58V26.848H316.372V58H310.708ZM339.733 26.848H347.845L356.629 45.904H356.149L364.933 26.848H372.757V58H367.045V33.376H367.909L358.213 54.592H354.517L344.869 33.472H345.397V58H339.733V26.848ZM392.678 58L403.286 26.848H410.39L420.566 58H414.614L412.454 51.28H400.886L398.678 58H392.678ZM402.326 47.008H411.11L406.742 33.616L402.326 47.008ZM440.437 26.848H446.629L460.789 49.072H460.357V26.848H466.021V58H460.261L445.189 34.432H446.101V58H440.437V26.848ZM500.187 58.672C498.027 58.672 496.035 58.296 494.211 57.544C492.403 56.792 490.931 55.648 489.795 54.112C488.675 52.576 488.075 50.624 487.995 48.256H493.563C493.563 49.456 493.859 50.44 494.451 51.208C495.043 51.976 495.835 52.552 496.827 52.936C497.835 53.304 498.939 53.488 500.139 53.488C501.291 53.488 502.315 53.336 503.211 53.032C504.123 52.728 504.835 52.296 505.347 51.736C505.875 51.16 506.139 50.48 506.139 49.696C506.139 48.656 505.819 47.84 505.179 47.248C504.555 46.656 503.547 46.112 502.155 45.616L496.011 43.168C493.611 42.224 491.771 41.128 490.491 39.88C489.211 38.632 488.571 36.912 488.571 34.72C488.571 32.192 489.571 30.144 491.571 28.576C493.571 27.008 496.363 26.224 499.947 26.224C503.435 26.224 506.131 27.04 508.035 28.672C509.939 30.288 511.019 32.544 511.275 35.44H505.707C505.499 34.208 504.939 33.224 504.027 32.488C503.115 31.736 501.755 31.36 499.947 31.36C498.347 31.36 497.083 31.696 496.155 32.368C495.227 33.024 494.763 33.856 494.763 34.864C494.763 35.728 495.051 36.416 495.627 36.928C496.219 37.424 497.131 37.904 498.363 38.368L505.179 41.008C507.483 41.904 509.251 43.032 510.483 44.392C511.715 45.752 512.331 47.456 512.331 49.504C512.331 51.376 511.859 53 510.915 54.376C509.971 55.736 508.595 56.792 506.787 57.544C504.979 58.296 502.779 58.672 500.187 58.672Z" fill="#5BBC2E"/>
<path d="M530.172 31.744V26.848H555.132V31.744H544.212L545.484 30.448V58H539.82V30.448L541.092 31.744H530.172ZM574.2 58V26.848H594.216V31.744H579.864V39.952H593.352V44.848H579.864V53.056H594.216V58H574.2ZM628.148 58.672C625.412 58.672 623.028 58.024 620.996 56.728C618.98 55.416 617.412 53.544 616.292 51.112C615.172 48.68 614.612 45.76 614.612 42.352C614.612 38.832 615.188 35.88 616.34 33.496C617.508 31.096 619.108 29.288 621.14 28.072C623.188 26.84 625.524 26.224 628.148 26.224C631.78 26.224 634.612 27.104 636.644 28.864C638.692 30.624 640.004 32.912 640.58 35.728L634.532 36.832C634.036 35.2 633.244 33.88 632.156 32.872C631.068 31.864 629.732 31.36 628.148 31.36C626.756 31.36 625.5 31.768 624.38 32.584C623.26 33.384 622.364 34.6 621.692 36.232C621.036 37.864 620.708 39.904 620.708 42.352C620.708 44.656 620.996 46.64 621.572 48.304C622.164 49.968 623.012 51.248 624.116 52.144C625.22 53.04 626.564 53.488 628.148 53.488C630.18 53.488 631.748 52.952 632.852 51.88C633.972 50.792 634.532 49.408 634.532 47.728H640.58C640.58 50.048 640.076 52.024 639.068 53.656C638.076 55.272 636.652 56.512 634.796 57.376C632.94 58.24 630.724 58.672 628.148 58.672ZM661.642 26.848H667.306V39.856H680.89V26.848H686.554V58H680.89V44.8H667.306V58H661.642V26.848Z" fill="white"/>
<path d="M230 157L230 7" stroke="white" stroke-width="3"/>
<path d="M260.944 111V90.232H274.288V93.496H264.72V98.968H273.712V102.232H264.72V107.704H274.288V111H260.944ZM305.485 111V101.912C305.485 100.76 305.208 99.8907 304.653 99.304C304.099 98.7173 303.373 98.424 302.477 98.424C301.347 98.424 300.456 98.8827 299.805 99.8C299.155 100.717 298.829 102.104 298.829 103.96H297.261C297.261 102.328 297.411 100.947 297.709 99.816C298.019 98.6747 298.451 97.7573 299.005 97.064C299.571 96.36 300.232 95.848 300.989 95.528C301.747 95.1973 302.584 95.032 303.501 95.032C304.771 95.032 305.832 95.32 306.685 95.896C307.549 96.4613 308.2 97.2613 308.637 98.296C309.075 99.3307 309.293 100.536 309.293 101.912V111H305.485ZM284.397 111V95.48H287.693L288.109 98.136C288.621 97.1013 289.299 96.328 290.141 95.816C290.984 95.2933 291.949 95.032 293.037 95.032C294.317 95.032 295.384 95.32 296.237 95.896C297.101 96.4613 297.747 97.2613 298.173 98.296C298.611 99.3307 298.829 100.536 298.829 101.912V111H295.053V101.912C295.053 100.76 294.776 99.8907 294.221 99.304C293.667 98.7173 292.941 98.424 292.045 98.424C291.288 98.424 290.616 98.632 290.029 99.048C289.453 99.464 289 100.093 288.669 100.936C288.339 101.768 288.173 102.808 288.173 104.056V111H284.397ZM327.188 111.448C326.047 111.448 325.076 111.203 324.276 110.712C323.476 110.221 322.863 109.48 322.436 108.488C322.02 107.485 321.812 106.232 321.812 104.728H323.188C323.188 105.421 323.348 106.013 323.668 106.504C323.988 106.995 324.41 107.373 324.932 107.64C325.466 107.896 326.036 108.024 326.644 108.024C327.274 108.024 327.892 107.853 328.5 107.512C329.119 107.16 329.631 106.632 330.036 105.928C330.442 105.213 330.644 104.312 330.644 103.224C330.644 102.232 330.474 101.379 330.132 100.664C329.791 99.9387 329.322 99.384 328.724 99C328.138 98.616 327.466 98.424 326.708 98.424C326.068 98.424 325.482 98.568 324.948 98.856C324.415 99.144 323.988 99.5653 323.668 100.12C323.348 100.664 323.188 101.325 323.188 102.104H321.812C321.812 100.472 322.063 99.1387 322.564 98.104C323.066 97.0587 323.738 96.2853 324.58 95.784C325.423 95.2827 326.346 95.032 327.348 95.032C328.575 95.032 329.727 95.3573 330.804 96.008C331.892 96.6587 332.772 97.5973 333.444 98.824C334.116 100.04 334.452 101.507 334.452 103.224C334.452 104.952 334.111 106.429 333.428 107.656C332.746 108.883 331.85 109.821 330.74 110.472C329.642 111.123 328.458 111.448 327.188 111.448ZM319.412 118.584V95.48H322.516L323.188 99.32V118.584H319.412ZM349.695 111.448C348.277 111.448 346.991 111.144 345.839 110.536C344.698 109.928 343.791 109.021 343.119 107.816C342.447 106.6 342.111 105.08 342.111 103.256C342.111 101.4 342.447 99.864 343.119 98.648C343.791 97.432 344.698 96.5253 345.839 95.928C346.991 95.3307 348.277 95.032 349.695 95.032C351.093 95.032 352.357 95.3307 353.487 95.928C354.629 96.5253 355.535 97.432 356.207 98.648C356.879 99.864 357.215 101.4 357.215 103.256C357.215 105.08 356.879 106.6 356.207 107.816C355.535 109.021 354.629 109.928 353.487 110.536C352.357 111.144 351.093 111.448 349.695 111.448ZM349.567 108.152C350.314 108.152 350.975 107.971 351.551 107.608C352.138 107.235 352.597 106.685 352.927 105.96C353.269 105.235 353.439 104.333 353.439 103.256C353.439 101.613 353.114 100.376 352.463 99.544C351.823 98.712 350.943 98.296 349.823 98.296C349.066 98.296 348.394 98.4827 347.807 98.856C347.221 99.2187 346.757 99.768 346.415 100.504C346.085 101.24 345.919 102.157 345.919 103.256C345.919 104.877 346.245 106.099 346.895 106.92C347.557 107.741 348.447 108.152 349.567 108.152ZM363.756 95.48H367.692L371.052 107.256H370.668L373.836 96.312H377.26L380.428 107.288H380.044L383.404 95.48H387.18L382.06 111H378.348L375.18 100.696H375.756L372.652 111H368.908L363.756 95.48ZM401.03 111.448C399.708 111.448 398.497 111.107 397.398 110.424C396.3 109.741 395.42 108.787 394.758 107.56C394.097 106.323 393.766 104.877 393.766 103.224C393.766 101.517 394.092 100.051 394.742 98.824C395.404 97.5973 396.284 96.6587 397.382 96.008C398.481 95.3573 399.697 95.032 401.03 95.032C402.268 95.032 403.334 95.2827 404.23 95.784C405.137 96.2747 405.862 96.9467 406.406 97.8C406.961 98.6427 407.334 99.5973 407.526 100.664C407.718 101.731 407.729 102.829 407.558 103.96H396.774V101.912H404.886L404.15 102.392C404.182 101.891 404.156 101.384 404.07 100.872C403.996 100.36 403.846 99.8907 403.622 99.464C403.398 99.0373 403.078 98.696 402.662 98.44C402.257 98.1733 401.734 98.04 401.094 98.04C400.326 98.04 399.676 98.232 399.142 98.616C398.609 99 398.204 99.5227 397.926 100.184C397.649 100.845 397.51 101.592 397.51 102.424V103.928C397.51 104.803 397.638 105.576 397.894 106.248C398.161 106.92 398.55 107.448 399.062 107.832C399.585 108.216 400.241 108.408 401.03 108.408C401.766 108.408 402.385 108.237 402.886 107.896C403.388 107.555 403.708 107.043 403.846 106.36H407.654C407.494 107.363 407.116 108.248 406.518 109.016C405.932 109.773 405.169 110.371 404.23 110.808C403.292 111.235 402.225 111.448 401.03 111.448ZM416.847 111V95.416H420.623V111H416.847ZM419.695 104.184C419.695 102.147 419.925 100.461 420.383 99.128C420.842 97.7947 421.455 96.808 422.223 96.168C423.002 95.5173 423.866 95.192 424.815 95.192C425.071 95.192 425.311 95.208 425.535 95.24C425.77 95.272 425.999 95.32 426.223 95.384L426.159 99.16C425.882 99.096 425.583 99.0427 425.263 99C424.943 98.9573 424.655 98.936 424.399 98.936C423.567 98.936 422.869 99.1387 422.303 99.544C421.749 99.9387 421.327 100.525 421.039 101.304C420.762 102.083 420.623 103.043 420.623 104.184H419.695ZM436.258 92.632C435.522 92.632 434.946 92.44 434.53 92.056C434.124 91.6613 433.922 91.1173 433.922 90.424C433.922 89.752 434.124 89.2187 434.53 88.824C434.946 88.4187 435.522 88.216 436.258 88.216C436.983 88.216 437.554 88.4187 437.97 88.824C438.386 89.2187 438.594 89.752 438.594 90.424C438.594 91.1173 438.386 91.6613 437.97 92.056C437.554 92.44 436.983 92.632 436.258 92.632ZM434.37 111V95.416H438.146V111H434.37ZM459.846 111V101.912C459.846 100.76 459.568 99.8907 459.014 99.304C458.459 98.7173 457.734 98.424 456.838 98.424C456.08 98.424 455.408 98.632 454.822 99.048C454.246 99.464 453.792 100.093 453.462 100.936C453.131 101.768 452.966 102.808 452.966 104.056H451.718C451.718 102.04 451.968 100.365 452.47 99.032C452.971 97.688 453.68 96.6853 454.598 96.024C455.515 95.3627 456.592 95.032 457.83 95.032C459.11 95.032 460.176 95.32 461.03 95.896C461.894 96.4613 462.539 97.2613 462.966 98.296C463.403 99.3307 463.622 100.536 463.622 101.912V111H459.846ZM449.19 111V95.48H452.486L452.966 98.552V111H449.19ZM479.751 119.032C477.97 119.032 476.445 118.787 475.175 118.296C473.917 117.805 472.951 117.16 472.279 116.36C471.607 115.571 471.271 114.712 471.271 113.784C471.271 112.685 471.671 111.832 472.471 111.224C473.271 110.627 474.279 110.328 475.495 110.328L478.247 111.352C477.202 111.352 476.397 111.549 475.831 111.944C475.266 112.339 474.983 112.888 474.983 113.592C474.983 114.328 475.405 114.915 476.247 115.352C477.101 115.8 478.269 116.024 479.751 116.024C480.829 116.024 481.762 115.864 482.551 115.544C483.341 115.224 483.949 114.808 484.375 114.296C484.813 113.784 485.031 113.24 485.031 112.664C485.031 112.28 484.903 111.965 484.647 111.72C484.391 111.475 483.997 111.352 483.463 111.352H478.247C477.202 111.352 476.247 111.187 475.383 110.856C474.53 110.515 473.847 110.061 473.335 109.496C472.834 108.92 472.583 108.28 472.583 107.576C472.583 106.925 472.765 106.365 473.127 105.896C473.49 105.416 473.981 105.048 474.599 104.792C475.229 104.536 475.933 104.408 476.711 104.408L477.671 105.656C477.362 105.656 477.063 105.72 476.775 105.848C476.498 105.965 476.269 106.141 476.087 106.376C475.906 106.611 475.815 106.904 475.815 107.256C475.815 107.683 475.997 108.029 476.359 108.296C476.722 108.563 477.351 108.696 478.247 108.696H483.463C485.117 108.696 486.413 109 487.351 109.608C488.301 110.216 488.775 111.149 488.775 112.408C488.775 113.528 488.407 114.589 487.671 115.592C486.935 116.605 485.89 117.432 484.535 118.072C483.191 118.712 481.597 119.032 479.751 119.032ZM479.943 106.2C478.717 106.2 477.591 105.971 476.567 105.512C475.554 105.043 474.743 104.392 474.135 103.56C473.527 102.728 473.223 101.752 473.223 100.632C473.223 99.4907 473.527 98.4987 474.135 97.656C474.743 96.8133 475.554 96.168 476.567 95.72C477.591 95.2613 478.717 95.032 479.943 95.032C481.138 95.032 482.242 95.2613 483.255 95.72C484.269 96.168 485.085 96.8133 485.703 97.656C486.322 98.4987 486.631 99.4907 486.631 100.632C486.631 101.752 486.322 102.728 485.703 103.56C485.085 104.392 484.269 105.043 483.255 105.512C482.242 105.971 481.138 106.2 479.943 106.2ZM479.975 103.576C480.957 103.576 481.693 103.293 482.183 102.728C482.674 102.163 482.919 101.464 482.919 100.632C482.919 99.736 482.669 99.016 482.167 98.472C481.677 97.928 480.935 97.656 479.943 97.656C478.983 97.656 478.247 97.928 477.735 98.472C477.223 99.016 476.967 99.736 476.967 100.632C476.967 101.464 477.223 102.163 477.735 102.728C478.258 103.293 479.005 103.576 479.975 103.576ZM485.447 97.528L483.719 96.536C483.719 95.608 483.933 94.7973 484.359 94.104C484.797 93.4 485.373 92.856 486.087 92.472C486.813 92.088 487.613 91.896 488.487 91.896L488.295 95.512C487.367 95.512 486.658 95.6773 486.167 96.008C485.687 96.328 485.447 96.8347 485.447 97.528ZM517.318 111.448C515.494 111.448 513.905 111.016 512.55 110.152C511.206 109.277 510.161 108.029 509.414 106.408C508.667 104.787 508.294 102.84 508.294 100.568C508.294 98.2213 508.678 96.2533 509.446 94.664C510.225 93.064 511.291 91.8587 512.646 91.048C514.011 90.2267 515.569 89.816 517.318 89.816C519.739 89.816 521.627 90.4027 522.982 91.576C524.347 92.7493 525.222 94.2747 525.606 96.152L521.574 96.888C521.243 95.8 520.715 94.92 519.99 94.248C519.265 93.576 518.374 93.24 517.318 93.24C516.39 93.24 515.553 93.512 514.806 94.056C514.059 94.5893 513.462 95.4 513.014 96.488C512.577 97.576 512.358 98.936 512.358 100.568C512.358 102.104 512.55 103.427 512.934 104.536C513.329 105.645 513.894 106.499 514.63 107.096C515.366 107.693 516.262 107.992 517.318 107.992C518.673 107.992 519.718 107.635 520.454 106.92C521.201 106.195 521.574 105.272 521.574 104.152H525.606C525.606 105.699 525.27 107.016 524.598 108.104C523.937 109.181 522.987 110.008 521.75 110.584C520.513 111.16 519.035 111.448 517.318 111.448ZM534.687 111V95.416H538.463V111H534.687ZM537.535 104.184C537.535 102.147 537.765 100.461 538.223 99.128C538.682 97.7947 539.295 96.808 540.063 96.168C540.842 95.5173 541.706 95.192 542.655 95.192C542.911 95.192 543.151 95.208 543.375 95.24C543.61 95.272 543.839 95.32 544.063 95.384L543.999 99.16C543.722 99.096 543.423 99.0427 543.103 99C542.783 98.9573 542.495 98.936 542.239 98.936C541.407 98.936 540.709 99.1387 540.143 99.544C539.589 99.9387 539.167 100.525 538.879 101.304C538.602 102.083 538.463 103.043 538.463 104.184H537.535ZM557.682 111.448C556.359 111.448 555.148 111.107 554.05 110.424C552.951 109.741 552.071 108.787 551.41 107.56C550.748 106.323 550.418 104.877 550.418 103.224C550.418 101.517 550.743 100.051 551.394 98.824C552.055 97.5973 552.935 96.6587 554.034 96.008C555.132 95.3573 556.348 95.032 557.682 95.032C558.919 95.032 559.986 95.2827 560.882 95.784C561.788 96.2747 562.514 96.9467 563.058 97.8C563.612 98.6427 563.986 99.5973 564.178 100.664C564.37 101.731 564.38 102.829 564.21 103.96H553.426V101.912H561.538L560.802 102.392C560.834 101.891 560.807 101.384 560.722 100.872C560.647 100.36 560.498 99.8907 560.274 99.464C560.05 99.0373 559.73 98.696 559.314 98.44C558.908 98.1733 558.386 98.04 557.746 98.04C556.978 98.04 556.327 98.232 555.794 98.616C555.26 99 554.855 99.5227 554.578 100.184C554.3 100.845 554.162 101.592 554.162 102.424V103.928C554.162 104.803 554.29 105.576 554.546 106.248C554.812 106.92 555.202 107.448 555.714 107.832C556.236 108.216 556.892 108.408 557.682 108.408C558.418 108.408 559.036 108.237 559.538 107.896C560.039 107.555 560.359 107.043 560.498 106.36H564.306C564.146 107.363 563.767 108.248 563.17 109.016C562.583 109.773 561.82 110.371 560.882 110.808C559.943 111.235 558.876 111.448 557.682 111.448ZM583.386 111L582.906 107.224V100.984C582.906 99.896 582.682 99.0907 582.234 98.568C581.797 98.0453 581.05 97.784 579.994 97.784C579.386 97.784 578.858 97.8747 578.41 98.056C577.962 98.2373 577.616 98.4987 577.37 98.84C577.136 99.1707 577.018 99.576 577.018 100.056H572.89C572.89 98.8827 573.173 97.928 573.738 97.192C574.304 96.4453 575.114 95.9013 576.17 95.56C577.237 95.208 578.512 95.032 579.994 95.032C581.338 95.032 582.512 95.2507 583.514 95.688C584.517 96.1147 585.296 96.776 585.85 97.672C586.405 98.568 586.682 99.7147 586.682 101.112V111H583.386ZM578.298 111.448C576.965 111.448 575.85 111.219 574.954 110.76C574.069 110.291 573.402 109.677 572.954 108.92C572.506 108.163 572.282 107.341 572.282 106.456C572.282 105.475 572.538 104.653 573.05 103.992C573.573 103.32 574.309 102.819 575.258 102.488C576.208 102.147 577.328 101.976 578.618 101.976C579.461 101.976 580.256 102.04 581.002 102.168C581.76 102.296 582.512 102.467 583.258 102.68V104.888C582.672 104.696 582.032 104.547 581.338 104.44C580.645 104.333 579.994 104.28 579.386 104.28C578.49 104.28 577.754 104.445 577.178 104.776C576.602 105.107 576.314 105.667 576.314 106.456C576.314 107.032 576.549 107.528 577.018 107.944C577.488 108.36 578.234 108.568 579.258 108.568C580.037 108.568 580.698 108.397 581.242 108.056C581.786 107.715 582.197 107.288 582.474 106.776C582.762 106.264 582.906 105.752 582.906 105.24H583.802C583.802 106.36 583.594 107.395 583.178 108.344C582.762 109.283 582.144 110.035 581.322 110.6C580.512 111.165 579.504 111.448 578.298 111.448ZM602.105 111.448C601.188 111.448 600.345 111.277 599.577 110.936C598.82 110.595 598.212 110.072 597.753 109.368C597.305 108.664 597.081 107.768 597.081 106.68V91.352H600.857V106.552C600.857 107.832 601.465 108.472 602.681 108.472C603.055 108.472 603.428 108.429 603.801 108.344C604.175 108.259 604.601 108.131 605.081 107.96L605.625 110.616C605.028 110.851 604.447 111.048 603.881 111.208C603.316 111.368 602.724 111.448 602.105 111.448ZM594.905 97.976V95.48H605.081V97.976H594.905ZM616.33 92.632C615.594 92.632 615.018 92.44 614.602 92.056C614.197 91.6613 613.994 91.1173 613.994 90.424C613.994 89.752 614.197 89.2187 614.602 88.824C615.018 88.4187 615.594 88.216 616.33 88.216C617.056 88.216 617.626 88.4187 618.042 88.824C618.458 89.2187 618.666 89.752 618.666 90.424C618.666 91.1173 618.458 91.6613 618.042 92.056C617.626 92.44 617.056 92.632 616.33 92.632ZM614.442 111V95.416H618.218V111H614.442ZM626.67 95.48H631.022L634.734 107.768H634.446L638.158 95.48H642.51L636.718 111H632.462L626.67 95.48ZM652.704 92.632C651.968 92.632 651.392 92.44 650.976 92.056C650.571 91.6613 650.368 91.1173 650.368 90.424C650.368 89.752 650.571 89.2187 650.976 88.824C651.392 88.4187 651.968 88.216 652.704 88.216C653.429 88.216 654 88.4187 654.416 88.824C654.832 89.2187 655.04 89.752 655.04 90.424C655.04 91.1173 654.832 91.6613 654.416 92.056C654 92.44 653.429 92.632 652.704 92.632ZM650.816 111V95.416H654.592V111H650.816ZM670.884 111.448C669.967 111.448 669.124 111.277 668.356 110.936C667.599 110.595 666.991 110.072 666.532 109.368C666.084 108.664 665.86 107.768 665.86 106.68V91.352H669.636V106.552C669.636 107.832 670.244 108.472 671.46 108.472C671.833 108.472 672.207 108.429 672.58 108.344C672.953 108.259 673.38 108.131 673.86 107.96L674.404 110.616C673.807 110.851 673.225 111.048 672.66 111.208C672.095 111.368 671.503 111.448 670.884 111.448ZM663.684 97.976V95.48H673.86V97.976H663.684ZM680.533 95.48H684.821L688.949 107.704H688.277L691.829 95.48H695.669L689.717 113.816C689.109 115.651 688.357 116.979 687.461 117.8C686.576 118.621 685.493 119.032 684.213 119.032C683.477 119.032 682.757 118.947 682.053 118.776C681.36 118.616 680.65 118.36 679.925 118.008V114.68C680.512 115.043 681.077 115.309 681.621 115.48C682.176 115.651 682.73 115.736 683.285 115.736C683.786 115.736 684.224 115.597 684.597 115.32C684.981 115.053 685.312 114.675 685.589 114.184C685.866 113.704 686.101 113.144 686.293 112.504L686.773 111L680.533 95.48Z" fill="white"/>
<defs>
<linearGradient id="paint0_linear_0_1" x1="169.569" y1="67.6948" x2="-11.0618" y2="71.3081" gradientUnits="userSpaceOnUse">
<stop offset="0.104167" stop-color="white"/>
<stop offset="0.40975" stop-color="#5BBC2E"/>
</linearGradient>
<linearGradient id="paint1_linear_0_1" x1="169.569" y1="67.6948" x2="-11.0618" y2="71.3081" gradientUnits="userSpaceOnUse">
<stop offset="0.104167" stop-color="white"/>
<stop offset="0.40975" stop-color="#5BBC2E"/>
</linearGradient>
<linearGradient id="paint2_linear_0_1" x1="169.569" y1="67.6948" x2="-11.0618" y2="71.3081" gradientUnits="userSpaceOnUse">
<stop offset="0.104167" stop-color="white"/>
<stop offset="0.40975" stop-color="#5BBC2E"/>
</linearGradient>
<linearGradient id="paint3_linear_0_1" x1="169.569" y1="67.6948" x2="-11.0618" y2="71.3081" gradientUnits="userSpaceOnUse">
<stop offset="0.104167" stop-color="white"/>
<stop offset="0.40975" stop-color="#5BBC2E"/>
</linearGradient>
<linearGradient id="paint4_linear_0_1" x1="169.569" y1="67.6948" x2="-11.0618" y2="71.3081" gradientUnits="userSpaceOnUse">
<stop offset="0.104167" stop-color="white"/>
<stop offset="0.40975" stop-color="#5BBC2E"/>
</linearGradient>
<linearGradient id="paint5_linear_0_1" x1="169.569" y1="67.6948" x2="-11.0618" y2="71.3081" gradientUnits="userSpaceOnUse">
<stop offset="0.104167" stop-color="white"/>
<stop offset="0.40975" stop-color="#5BBC2E"/>
</linearGradient>
<linearGradient id="paint6_linear_0_1" x1="169.569" y1="67.6948" x2="-11.0618" y2="71.3081" gradientUnits="userSpaceOnUse">
<stop offset="0.104167" stop-color="white"/>
<stop offset="0.40975" stop-color="#5BBC2E"/>
</linearGradient>
<linearGradient id="paint7_linear_0_1" x1="169.569" y1="67.6948" x2="-11.0618" y2="71.3081" gradientUnits="userSpaceOnUse">
<stop offset="0.104167" stop-color="white"/>
<stop offset="0.40975" stop-color="#5BBC2E"/>
</linearGradient>
</defs>
</svg>
