<svg width="215" height="164" viewBox="0 0 215 164" fill="none" xmlns="http://www.w3.org/2000/svg">
<path d="M215 20.1008L55.5379 20.5415C47.6187 20.5634 39.7211 19.5641 32.033 17.5673L24.2136 15.5364C15.2967 13.2205 7.00992 8.83743 0.000275068 2.72945L166.853 4.17229C172.225 4.21874 177.584 4.7977 182.854 5.90098L188.171 7.01419C198.015 9.07484 207.228 13.5689 215 20.1008Z" fill="url(#paint0_linear_186_16)"/>
<path d="M111.961 158.289L114.127 74.1507C114.351 65.4125 116.515 56.84 120.455 49.0778L122.54 44.9703C126.431 37.3055 132.499 31.0178 139.951 26.9302L136.796 122.618C136.571 129.447 134.58 136.095 131.024 141.885C127.698 147.302 123.11 151.795 117.669 154.964L111.961 158.289Z" fill="url(#paint1_linear_186_16)"/>
<path d="M63.408 33.9178L61.4494 117.394C61.2491 125.932 59.1853 134.316 55.4081 141.936L53.2728 146.244C49.5498 153.754 43.6912 159.943 36.4633 164L39.3619 69.1275C39.5659 62.4532 41.4696 55.9488 44.8859 50.2544C48.1336 44.8409 52.6447 40.3323 58.0166 37.1308L63.408 33.9178Z" fill="url(#paint2_linear_186_16)"/>
<path d="M211.724 17.3842L55.8199 17.8151C48.0187 17.8367 40.24 16.8308 32.6766 14.8223L25.2012 12.8372C16.4096 10.5025 8.26021 6.10638 1.4042 0L164.57 1.45241C169.859 1.4995 175.135 2.08223 180.32 3.19204L185.356 4.27019C195.061 6.34757 204.123 10.8546 211.724 17.3842Z" fill="url(#paint3_linear_186_16)"/>
<path d="M109.162 158.289L111.327 74.1507C111.552 65.4125 113.716 56.84 117.656 49.0778L119.741 44.9703C123.632 37.3055 129.7 31.0178 137.152 26.9302L133.997 122.618C133.772 129.447 131.781 136.095 128.225 141.885C124.899 147.302 120.311 151.795 114.87 154.964L109.162 158.289Z" fill="url(#paint4_linear_186_16)"/>
<path d="M60.7645 32.6415L58.8059 116.118C58.6056 124.656 56.5418 133.04 52.7646 140.66L50.6293 144.967C46.9063 152.478 41.0477 158.667 33.8198 162.724L36.7184 67.8513C36.9224 61.177 38.8261 54.6726 42.2424 48.9782C45.4901 43.5646 50.0012 39.056 55.3731 35.8546L60.7645 32.6415Z" fill="url(#paint5_linear_186_16)"/>
<path d="M0 95.4651H36.3874V81.187H23.0364C15.5221 81.187 8.38381 84.5406 3.49878 90.3658L0 95.4651Z" fill="url(#paint6_linear_186_16)"/>
<path d="M61.5787 81.1869H111.961V95.465H61.5787V81.1869Z" fill="url(#paint7_linear_186_16)"/>
<defs>
<linearGradient id="paint0_linear_186_16" x1="169.569" y1="67.6948" x2="-11.0618" y2="71.3081" gradientUnits="userSpaceOnUse">
<stop offset="0.104167" stop-color="white"/>
<stop offset="0.40975" stop-color="#5BBC2E"/>
</linearGradient>
<linearGradient id="paint1_linear_186_16" x1="169.569" y1="67.6948" x2="-11.0618" y2="71.3081" gradientUnits="userSpaceOnUse">
<stop offset="0.104167" stop-color="white"/>
<stop offset="0.40975" stop-color="#5BBC2E"/>
</linearGradient>
<linearGradient id="paint2_linear_186_16" x1="169.569" y1="67.6948" x2="-11.0618" y2="71.3081" gradientUnits="userSpaceOnUse">
<stop offset="0.104167" stop-color="white"/>
<stop offset="0.40975" stop-color="#5BBC2E"/>
</linearGradient>
<linearGradient id="paint3_linear_186_16" x1="169.569" y1="67.6948" x2="-11.0618" y2="71.3081" gradientUnits="userSpaceOnUse">
<stop offset="0.104167" stop-color="white"/>
<stop offset="0.40975" stop-color="#5BBC2E"/>
</linearGradient>
<linearGradient id="paint4_linear_186_16" x1="169.569" y1="67.6948" x2="-11.0618" y2="71.3081" gradientUnits="userSpaceOnUse">
<stop offset="0.104167" stop-color="white"/>
<stop offset="0.40975" stop-color="#5BBC2E"/>
</linearGradient>
<linearGradient id="paint5_linear_186_16" x1="169.569" y1="67.6948" x2="-11.0618" y2="71.3081" gradientUnits="userSpaceOnUse">
<stop offset="0.104167" stop-color="white"/>
<stop offset="0.40975" stop-color="#5BBC2E"/>
</linearGradient>
<linearGradient id="paint6_linear_186_16" x1="169.569" y1="67.6948" x2="-11.0618" y2="71.3081" gradientUnits="userSpaceOnUse">
<stop offset="0.104167" stop-color="white"/>
<stop offset="0.40975" stop-color="#5BBC2E"/>
</linearGradient>
<linearGradient id="paint7_linear_186_16" x1="169.569" y1="67.6948" x2="-11.0618" y2="71.3081" gradientUnits="userSpaceOnUse">
<stop offset="0.104167" stop-color="white"/>
<stop offset="0.40975" stop-color="#5BBC2E"/>
</linearGradient>
</defs>
</svg>
